<svg id="SvgjsSvg1014" width="288" height="288" xmlns="http://www.w3.org/2000/svg" version="1.1" xmlns:xlink="http://www.w3.org/1999/xlink" xmlns:svgjs="http://svgjs.com/svgjs"><defs id="SvgjsDefs1015"></defs><g id="SvgjsG1016"><svg xmlns="http://www.w3.org/2000/svg" viewBox="0 0 96 96" width="288" height="288"><path stroke="#62748e" stroke-linecap="round" stroke-width="5" d="M11 77L33.318 54.682C35.0754 52.9246 37.9246 52.9246 39.682 54.682L45.318 60.318C47.0754 62.0754 49.9246 62.0754 51.682 60.318L72.818 39.182C74.5754 37.4246 77.4246 37.4246 79.182 39.182L85.5 45.5" fill="none" class="svgStroke colorStroke000000-0 selectable"></path><circle cx="35" cy="31" r="6" stroke="#62748e" stroke-width="5" fill="none" class="svgStroke colorStroke000000-1 selectable"></circle><path stroke="#62748e" stroke-width="5" d="M24 86H71C79.2843 86 86 79.2843 86 71V49.2627V24C86 15.7157 79.2843 9 71 9H68.5407H24C15.7157 9 9 15.7157 9 24V71C9 79.2843 15.7157 86 24 86Z" fill="none" class="svgStroke colorStroke000000-2 selectable"></path></svg></g></svg>